<svg width="512" height="512" viewBox="0 0 512 512" fill="none" xmlns="http://www.w3.org/2000/svg">
<g clip-path="url(#clip0_2023_3363)">
<path d="M491.999 264.67C491.999 295.449 479.238 323.469 458.764 339.267C459.325 337.099 459.802 334.902 460.278 332.649V332.593C460.503 331.495 460.699 330.368 460.895 329.242C461.092 328.087 461.288 326.933 461.456 325.778C461.625 324.624 461.793 323.441 461.933 322.258C462.073 321.301 462.186 320.371 462.27 319.386C462.41 318.203 462.522 317.02 462.606 315.781C462.746 314.317 462.831 312.824 462.915 311.304C462.999 309.586 463.083 307.981 463.139 306.432C463.195 304.911 463.223 303.447 463.223 302.067V299.702C463.279 294.52 463.335 286.382 462.887 276.216C462.831 275.258 462.803 274.273 462.746 273.259C462.69 272.245 462.634 271.231 462.578 270.189C462.466 268.387 462.354 266.529 462.186 264.642C462.129 263.938 462.073 263.234 462.017 262.502C461.877 260.868 461.737 259.179 461.569 257.461C461.204 253.744 460.783 249.914 460.25 246C459.914 243.55 459.549 241.072 459.156 238.537C458.568 234.679 457.866 230.765 457.053 226.766C456.773 225.443 456.492 224.091 456.212 222.739C455.903 221.303 455.595 219.839 455.258 218.402C454.978 217.276 454.697 216.121 454.417 214.967C454.08 213.474 453.687 211.982 453.267 210.489C452.902 209.109 452.537 207.73 452.145 206.35C451.668 204.576 451.135 202.773 450.546 200.971C450.266 199.985 449.957 199 449.621 198.014C449.172 196.606 448.723 195.226 448.246 193.818C447.769 192.438 447.265 191.03 446.76 189.622C445.806 186.919 444.768 184.216 443.647 181.512C443.619 181.428 443.59 181.343 443.534 181.259C472.086 192.72 491.999 226.203 491.999 264.67Z" fill="#090000"/>
<path d="M72.111 179.936C71.4098 181.456 70.7087 182.977 70.0355 184.498C68.6612 187.539 67.3711 190.58 66.2212 193.622C65.6883 194.945 65.1834 196.269 64.6786 197.592C64.5103 197.986 64.3701 198.409 64.2298 198.803C63.7531 200.098 63.2763 201.422 62.8275 202.717C62.2946 204.238 61.7898 205.759 61.2849 207.279C59.7704 211.813 58.4242 216.291 57.2462 220.74C56.8255 222.204 56.4328 223.697 56.0682 225.161C55.7036 226.626 55.339 228.09 55.0024 229.526C54.6378 230.99 54.3013 232.427 53.9928 233.863C53.544 235.778 53.1513 237.693 52.7867 239.579C52.6746 240.002 52.5904 240.424 52.5343 240.847C52.1417 242.733 51.8051 244.62 51.4685 246.479C50.9917 249.21 50.543 251.914 50.1503 254.533C48.748 263.741 47.8785 272.245 47.3457 279.736C47.1774 281.651 47.0652 283.51 46.981 285.312C46.953 285.509 46.953 285.706 46.953 285.903C46.8969 286.72 46.8689 287.508 46.8408 288.269C46.7847 289.536 46.7286 290.747 46.7006 291.901C46.6445 293.788 46.5884 295.562 46.5884 297.196C46.5323 298.885 46.5323 300.434 46.5323 301.842C46.5323 303.25 46.5323 304.743 46.6164 306.32C46.6445 307.08 46.6725 307.897 46.7006 308.713C46.7006 309.558 46.7847 310.403 46.8128 311.304C46.925 313.416 47.0932 315.5 47.2896 317.556C47.3457 318.175 47.4018 318.795 47.4859 319.414C47.5981 320.625 47.7383 321.808 47.9066 322.962C48.2432 325.638 48.6358 328.285 49.1407 330.847C49.337 331.889 49.5333 332.903 49.7577 333.917C49.954 334.931 50.1784 335.944 50.4308 336.93C31.6394 320.738 20 293.675 20 264.67C20 224.57 41.8765 189.876 72.111 179.936Z" fill="#090000"/>
<path d="M454.783 299.617V302.039C454.755 304.686 454.671 307.53 454.474 310.825C454.334 313.416 454.138 315.979 453.885 318.457C453.1 325.919 451.81 332.875 449.959 339.549C449.846 339.915 449.734 340.309 449.622 340.675C449.482 341.295 449.286 341.914 449.061 342.506C448.781 343.435 448.444 344.392 448.108 345.294C448.023 345.519 447.967 345.716 447.883 345.913C447.659 346.476 447.463 347.04 447.238 347.575C443.648 356.67 438.235 365.231 431.027 373.144C378.776 435.858 256.323 434.281 255.117 434.196H254.669C253.462 434.281 130.954 435.829 78.5904 373.003C71.158 364.837 65.5486 355.769 61.9306 346.054C61.1172 343.914 60.4161 341.745 59.799 339.549C58.2565 334.001 57.1065 328.257 56.2932 322.174C55.8164 318.541 55.4798 314.768 55.2554 310.853C55.0872 307.418 55.003 304.574 55.003 301.814C54.9469 288.381 55.9847 261.573 63.2768 231.075C64.0061 228.118 64.7633 225.105 65.6047 222.064C67.7082 214.432 70.2044 206.688 73.1774 198.916C74.3834 195.79 75.6455 192.664 76.9917 189.566C78.366 186.441 79.7964 183.371 81.2829 180.273C82.0682 178.725 82.8255 177.204 83.6389 175.655C117.379 111.14 176.895 78.4453 260.53 78.4453C344.166 78.4453 402.027 111.365 432.121 176.275C437.422 187.651 441.46 199.31 444.602 210.715C455.203 249.548 454.895 285.622 454.783 299.617Z" fill="#090000"/>
<path d="M56.2928 322.174C57.0781 328.257 58.228 334.001 59.7706 339.549H59.7987C58.2561 334.001 57.1062 328.257 56.2928 322.174ZM56.0965 275.878C56.1526 275.315 56.2087 274.78 56.2647 274.189C56.3208 273.456 56.405 272.696 56.4611 271.964C56.3208 273.316 56.2087 274.611 56.0965 275.878ZM55.0587 295.084C55.1429 291.057 55.3392 286.326 55.7038 281.06C55.2831 286.692 55.1148 291.704 55.0307 295.928V296.632C54.9746 298.519 54.9746 300.265 54.9746 301.814C54.9746 304.574 55.0587 307.418 55.2551 310.853C55.0868 307.418 55.0026 304.574 55.0026 301.814C55.0026 300.547 55.0026 299.195 55.0307 297.703C55.0307 296.858 55.0587 295.985 55.0587 295.084ZM55.0307 295.928V297.703C55.0307 296.858 55.0587 295.985 55.0587 295.084C55.0587 295.365 55.0587 295.647 55.0307 295.928Z" fill="white"/>
<path d="M165.829 246.704C150.684 248.196 134.164 248.027 116.158 246.535H116.046C110.072 245.718 104.491 249.689 103.229 255.631C98.6009 277.568 93.9171 299.561 93.9732 320.766C93.9732 323.159 94.0573 325.525 94.1975 327.89C94.6463 335.606 95.7682 343.21 97.8997 350.644C100.929 361.148 106.398 370.103 113.578 377.734C155.564 426.593 251.035 426.114 255.831 425.86C260.627 426.114 356.099 426.593 398.085 377.734C405.237 370.103 410.734 361.148 413.763 350.644C415.894 343.21 417.016 335.578 417.465 327.862C417.605 325.553 417.689 323.244 417.689 320.935C417.774 299.702 413.09 277.652 408.434 255.659C407.172 249.745 401.619 245.774 395.617 246.563H395.504C377.498 248.055 360.979 248.224 345.834 246.732C330.38 244.451 311.392 234.651 294.816 224.26C270.892 209.307 240.714 209.307 216.79 224.26C200.214 234.623 181.227 244.423 165.773 246.704H165.829Z" fill="white"/>
<path d="M166.152 331.495C178.381 331.495 188.309 321.555 188.309 309.249C188.309 296.943 178.381 287.002 166.152 287.002C153.924 287.002 143.995 296.943 143.995 309.249C143.995 321.555 153.924 331.495 166.152 331.495Z" fill="#090000"/>
<path d="M344.417 331.495C356.645 331.495 366.574 321.555 366.574 309.249C366.574 296.943 356.645 287.002 344.417 287.002C332.189 287.002 322.26 296.943 322.26 309.249C322.26 321.555 332.189 331.495 344.417 331.495Z" fill="#090000"/>
<path d="M225.892 355.235L283.528 355.094C283.528 355.094 287.735 392.097 252.621 391.139C221.433 390.266 225.92 355.235 225.92 355.235H225.892Z" fill="#090000"/>
<ellipse cx="253.855" cy="156.306" rx="39.9751" ry="39.9752" fill="white"/>
<ellipse cx="253.855" cy="156.306" rx="27.9826" ry="27.9826" fill="#090000"/>
<circle cx="253.855" cy="156.306" r="15.9901" fill="white"/>
</g>
<defs>
<clipPath id="clip0_2023_3363">
<rect width="472" height="355.779" fill="white" transform="translate(20 78.4453)"/>
</clipPath>
</defs>
</svg>
