<svg width="512" height="512" viewBox="0 0 512 512" fill="none" xmlns="http://www.w3.org/2000/svg">
<rect width="512" height="512" fill="white"/>
<g clip-path="url(#clip0_2023_3439)">
<path d="M425.626 261.998C425.626 284.145 416.444 304.307 401.712 315.674C402.115 314.114 402.458 312.533 402.801 310.912V310.872C402.963 310.081 403.104 309.271 403.245 308.46C403.387 307.63 403.528 306.799 403.649 305.968C403.77 305.137 403.891 304.286 403.992 303.435C404.093 302.746 404.174 302.078 404.234 301.368C404.335 300.517 404.416 299.666 404.476 298.775C404.577 297.721 404.638 296.647 404.698 295.553C404.759 294.317 404.819 293.162 404.86 292.048C404.9 290.953 404.92 289.9 404.92 288.907V287.205C404.961 283.476 405.001 277.621 404.678 270.306C404.638 269.617 404.618 268.907 404.577 268.178C404.537 267.449 404.497 266.719 404.456 265.969C404.376 264.673 404.295 263.335 404.174 261.978C404.133 261.471 404.093 260.964 404.053 260.438C403.952 259.262 403.851 258.047 403.73 256.811C403.467 254.136 403.165 251.38 402.781 248.564C402.539 246.801 402.277 245.018 401.994 243.194C401.57 240.418 401.066 237.601 400.481 234.724C400.279 233.772 400.077 232.799 399.875 231.827C399.653 230.793 399.431 229.74 399.189 228.706C398.987 227.896 398.785 227.065 398.584 226.234C398.341 225.16 398.059 224.086 397.756 223.012C397.494 222.019 397.231 221.027 396.949 220.034C396.606 218.757 396.222 217.46 395.799 216.163C395.597 215.454 395.375 214.745 395.133 214.036C394.81 213.023 394.487 212.03 394.144 211.017C393.801 210.024 393.437 209.011 393.074 207.998C392.388 206.052 391.641 204.107 390.834 202.162C390.814 202.101 390.794 202.04 390.753 201.979C411.298 210.226 425.626 234.319 425.626 261.998Z" fill="#090000"/>
<path d="M123.496 201.027C122.992 202.122 122.487 203.216 122.003 204.31C121.014 206.498 120.086 208.687 119.258 210.875C118.875 211.827 118.512 212.78 118.148 213.732C118.027 214.016 117.926 214.32 117.826 214.603C117.482 215.535 117.139 216.488 116.816 217.42C116.433 218.514 116.07 219.608 115.706 220.702C114.617 223.965 113.648 227.187 112.8 230.388C112.498 231.442 112.215 232.516 111.953 233.569C111.69 234.623 111.428 235.677 111.186 236.71C110.924 237.764 110.681 238.797 110.459 239.831C110.137 241.208 109.854 242.586 109.592 243.944C109.511 244.248 109.45 244.552 109.41 244.856C109.127 246.213 108.885 247.571 108.643 248.908C108.3 250.874 107.977 252.819 107.695 254.703C106.686 261.329 106.06 267.449 105.677 272.839C105.555 274.217 105.475 275.554 105.414 276.851C105.394 276.992 105.394 277.134 105.394 277.276C105.354 277.864 105.333 278.431 105.313 278.978C105.273 279.89 105.233 280.761 105.212 281.592C105.172 282.95 105.132 284.226 105.132 285.402C105.091 286.617 105.091 287.732 105.091 288.745C105.091 289.758 105.091 290.832 105.152 291.967C105.172 292.514 105.192 293.101 105.212 293.689C105.212 294.297 105.273 294.905 105.293 295.553C105.374 297.073 105.495 298.572 105.636 300.052C105.677 300.497 105.717 300.943 105.777 301.389C105.858 302.26 105.959 303.111 106.08 303.942C106.322 305.867 106.605 307.772 106.968 309.616C107.109 310.365 107.251 311.095 107.412 311.824C107.553 312.554 107.715 313.283 107.896 313.992C94.3751 302.341 86 282.869 86 261.998C86 233.144 101.741 208.18 123.496 201.027Z" fill="#090000"/>
<path d="M398.847 287.144V288.887C398.827 290.791 398.766 292.838 398.625 295.208C398.524 297.073 398.383 298.917 398.201 300.7C397.636 306.069 396.708 311.074 395.376 315.877C395.295 316.14 395.214 316.424 395.134 316.687C395.033 317.133 394.892 317.579 394.73 318.004C394.528 318.673 394.286 319.362 394.044 320.01C393.983 320.172 393.943 320.314 393.882 320.456C393.721 320.861 393.58 321.266 393.418 321.651C390.835 328.196 386.94 334.356 381.754 340.05C344.156 385.175 256.046 384.041 255.178 383.98H254.855C253.987 384.041 165.837 385.155 128.159 339.949C122.811 334.073 118.774 327.548 116.171 320.557C115.586 319.017 115.081 317.457 114.637 315.877C113.527 311.885 112.7 307.751 112.115 303.374C111.772 300.761 111.529 298.045 111.368 295.229C111.247 292.757 111.186 290.71 111.186 288.724C111.146 279.059 111.893 259.769 117.14 237.824C117.664 235.697 118.209 233.529 118.815 231.34C120.328 225.849 122.124 220.277 124.264 214.684C125.131 212.435 126.04 210.186 127.008 207.957C127.997 205.708 129.026 203.499 130.096 201.27C130.661 200.156 131.206 199.062 131.791 197.947C156.069 151.525 198.893 128 259.073 128C319.253 128 360.886 151.687 382.541 198.393C386.355 206.579 389.261 214.968 391.521 223.174C399.15 251.117 398.928 277.073 398.847 287.144Z" fill="#090000"/>
<path d="M112.114 303.375C112.679 307.751 113.507 311.885 114.617 315.877H114.637C113.527 311.885 112.7 307.751 112.114 303.375ZM111.973 270.063C112.013 269.657 112.054 269.272 112.094 268.847C112.134 268.32 112.195 267.773 112.235 267.246C112.134 268.219 112.054 269.151 111.973 270.063ZM111.226 283.882C111.287 280.984 111.428 277.58 111.69 273.791C111.388 277.844 111.267 281.45 111.206 284.49V284.996C111.166 286.354 111.166 287.61 111.166 288.725C111.166 290.71 111.226 292.757 111.368 295.229C111.246 292.757 111.186 290.71 111.186 288.725C111.186 287.813 111.186 286.84 111.206 285.766C111.206 285.158 111.226 284.53 111.226 283.882ZM111.206 284.49V285.766C111.206 285.158 111.226 284.53 111.226 283.882C111.226 284.084 111.226 284.287 111.206 284.49Z" fill="white"/>
<path d="M190.931 249.07C180.033 250.144 168.147 250.023 155.19 248.949H155.11C150.811 248.361 146.795 251.218 145.887 255.493C142.557 271.278 139.187 287.103 139.227 302.361C139.227 304.084 139.288 305.786 139.389 307.488C139.712 313.04 140.519 318.511 142.053 323.86C144.232 331.418 148.167 337.862 153.334 343.353C183.545 378.509 252.241 378.164 255.692 377.982C259.143 378.164 327.839 378.509 358.05 343.353C363.196 337.862 367.152 331.418 369.331 323.86C370.865 318.511 371.672 313.02 371.995 307.468C372.096 305.806 372.157 304.144 372.157 302.483C372.217 287.205 368.847 271.339 365.497 255.514C364.589 251.259 360.593 248.402 356.274 248.969H356.194C343.237 250.043 331.351 250.164 320.453 249.09C309.333 247.449 295.671 240.398 283.744 232.921C266.529 222.161 244.814 222.161 227.6 232.921C215.673 240.377 202.01 247.429 190.891 249.07H190.931Z" fill="white"/>
<path d="M191.164 310.081C199.963 310.081 207.107 302.928 207.107 294.074C207.107 285.219 199.963 278.066 191.164 278.066C182.365 278.066 175.221 285.219 175.221 294.074C175.221 302.928 182.365 310.081 191.164 310.081Z" fill="#090000"/>
<path d="M319.434 310.081C328.233 310.081 335.377 302.928 335.377 294.074C335.377 285.219 328.233 278.066 319.434 278.066C310.635 278.066 303.491 285.219 303.491 294.074C303.491 302.928 310.635 310.081 319.434 310.081Z" fill="#090000"/>
<path d="M234.149 327.163L275.621 327.062C275.621 327.062 278.648 353.687 253.382 352.998C230.94 352.37 234.169 327.163 234.169 327.163H234.149Z" fill="#090000"/>
<ellipse cx="254.27" cy="184.025" rx="28.764" ry="28.764" fill="white"/>
<ellipse cx="254.27" cy="184.024" rx="20.1348" ry="20.1348" fill="#090000"/>
<ellipse cx="254.27" cy="184.025" rx="11.5056" ry="11.5056" fill="white"/>
</g>
<defs>
<clipPath id="clip0_2023_3439">
<rect width="339.627" height="256" fill="white" transform="translate(86 128)"/>
</clipPath>
</defs>
</svg>
